{"title":"Hercules 2005 DVD9rip 2parts English Klam","uid":6211815,"size":2713045341,"categoryP":"video","categoryS":"movies","magnet":"?xt=urn:btih:05f043aae97a2955b74c1921079946510657bbbd&amp;dn=Hercules+2005+DVD9rip+2parts+English+Klam&amp;tr=udp%3A%2F%2Ftracker.openbittorrent.com%3A80&amp;tr=udp%3A%2F%2Fopen.demonii.com%3A1337&amp;tr=udp%3A%2F%2Ftracker.coppersurfer.tk%3A6969&amp;tr=udp%3A%2F%2Fexodus.desync.com%3A6969","seeders":0,"leechers":1,"uploader":"Klambake","files":-1,"time":1299012084,"description":"With: Paul Telfer, Leelee Sobieski and Timothy Dalton\n\nA chronicle of the life of the Greek hero who, after killing his three sons must perform six labors to repent. \n\nGeneral:\n\nComplete name                    : Hercules\\Hercules Part2.avi\nFormat                           : AVI\nFormat/Info                      : Audio Video Interleave\nFile size                        : 1.26 GiB\nDuration                         : 1h 22mn\nOverall bit rate                 : 2 204 Kbps\n\nVideo:\n\nFormat                           : MPEG-4 Visual\nFormat profile                   : Simple@L3\nFormat settings, BVOP            : No\nFormat settings, QPel            : No\nFormat settings, GMC             : No warppoints\nFormat settings, Matrix          : Default (H.263)\nCodec ID                         : XVID\nCodec ID/Hint                    : XviD\nDuration                         : 1h 22mn\nBit rate                         : 1 745 Kbps\nWidth                            : 704 pixels\nHeight                           : 396 pixels\nDisplay aspect ratio             : 16:9\nFrame rate                       : 25.000 fps\nColor space                      : YUV\nChroma subsampling               : 4:2:0\nBit depth                        : 8 bits\nScan type                        : Progressive\nBits/(Pixel*Frame)               : 0.250\nStream size                      : 1.00 GiB (79%)\nWriting library                  : XviD 1.1.2 (UTC 2006-11-01)\n\nAudio:\n\nFormat                           : AC-3\nFormat/Info                      : Audio Coding 3\nMode extension                   : CM (complete main)\nCodec ID                         : 2000\nDuration                         : 1h 22mn\nBit rate mode                    : Constant\nBit rate                         : 448 Kbps\nChannel(s)                       : 6 channels\nChannel positions                : Front: L C R, Side: L R, LFE\nSampling rate                    : 48.0 KHz\nBit depth                        : 16 bits\nStream size                      : 263 MiB (20%)\nAlignment                        : Aligned on interleaves\nInterleave, duration             : 32 ms (0.80 video frame)\n","torrent":{"xt":"urn:btih:05f043aae97a2955b74c1921079946510657bbbd","amp;dn":"Hercules+2005+DVD9rip+2parts+English+Klam","amp;tr":["udp%3A%2F%2Ftracker.openbittorrent.com%3A80","udp%3A%2F%2Fopen.demonii.com%3A1337","udp%3A%2F%2Ftracker.coppersurfer.tk%3A6969","udp%3A%2F%2Fexodus.desync.com%3A6969"],"infoHash":"05f043aae97a2955b74c1921079946510657bbbd","infoHashBuffer":{"type":"Buffer","data":[5,240,67,170,233,122,41,85,183,76,25,33,7,153,70,81,6,87,187,189]},"announce":[],"urlList":[]}}